<svg width="308" height="293" viewBox="0 0 308 293" fill="none" xmlns="http://www.w3.org/2000/svg">
<g clip-path="url(#clip0)">
<path d="M266.563 23.9386L266.655 24.3391L265.886 26.8962L264.132 28.7448L262.101 30.1312L255.27 31.0863L252.378 35.1839L255.485 39.3432L255.639 40.9144L255.978 42.3625L257.516 43.9029L260.778 48.4627L260.655 50.8966L259.424 53.2997L258.347 56.319L256.593 58.1984L248.039 63.5284L245.085 66.8866L239.793 70.5529L237.485 70.8918L236.531 71.2923L235.639 72.0317L233.7 72.7095L229.331 72.4323L227.084 73.4182L223.392 73.7262L222.623 74.1268L221.761 75.8521L220.5 76.7455L219.115 76.9612L216.376 76.7147L214.069 79.4876L211.299 80.381H208.376L206.13 81.675L204.191 82.0755L201.976 82.0447L200.868 82.9382L199.853 84.1706L195.576 86.6661L194.437 86.9742L193.268 86.851L192.314 87.6212L191.822 89.3465L191.022 90.2708L190.099 90.7329L187.791 91.1642L178.098 89.6546L177.821 89.3465L177.637 88.8844L177.144 88.5455L176.621 88.453L175.421 88.8227L174.621 90.394L173.729 91.1334L172.683 91.4107L172.221 86.7277L170.652 82.7225L168.929 81.521L165.421 80.5967L162.159 78.5941L159.821 77.8239L159.236 77.7931L158.497 77.485L158.036 76.8072L157.113 75.0202L156.344 72.8328L153.697 67.626L158.221 59.1535L159.297 57.9827L160.59 57.1509L163.051 57.3357L164.775 56.5655L164.836 55.7337L165.205 55.1483L165.698 53.6694L166.252 53.0841L166.621 52.4063V51.5436L166.744 50.6809L165.205 50.2804L162.19 50.5269L161.082 49.9723L161.698 47.9389L160.898 46.8298L159.328 46.6449L157.851 45.7515L156.805 44.057L156.251 41.8079L156.159 40.7912L156.651 40.0518L158.005 38.6962L158.467 37.8335L158.836 36.8784L158.497 35.5536L157.882 34.4445L157.205 32.4419L157.42 30.655L158.159 29.7923L160.867 30.1312L161.605 30.0388L161.482 30.5317L161.205 30.9322L161.082 31.1787L160.959 31.8257V32.5959L161.39 32.103L161.913 30.7474L162.036 30.5933L162.282 30.2853L163.051 29.0221L163.851 28.2518L164.467 27.9437L164.651 27.8821L167.021 26.3725L167.544 26.1568L168.744 26.0028L170.713 24.5239L171.144 24.3699L171.575 24.3083L171.759 24.1234L171.883 23.8769L172.129 23.1991L172.436 22.891L172.683 22.7062L172.652 22.4289L172.529 21.7819L172.99 21.7511L191.206 22.7062L208.899 23.6613L219.853 24.2466L233.146 24.9553L250.193 25.8795L263.117 26.5573L265.209 25.8487L265.794 25.3866L266.563 23.9386V23.9386Z" fill="#BFCBD9" stroke="#705454" stroke-width="1.64547" stroke-linecap="round" stroke-linejoin="round"/>
<path d="M161.483 30.5319L161.606 30.039L160.867 30.1314L158.16 29.7925L157.421 30.6552L157.206 32.4421L157.883 34.4447L158.498 35.5538L158.836 36.8786L158.467 37.8337L158.006 38.6964L156.652 40.052L156.159 40.7914L156.252 41.8081L156.806 44.0572L157.852 45.7517L159.329 46.6452L160.898 46.83L161.698 47.9391L161.083 49.9725L162.19 50.5271L165.206 50.2806L166.744 50.6812L166.621 51.5438V52.4065L166.252 53.0843L165.698 53.6697L165.206 55.1485L164.837 55.7339L164.775 56.5657L163.052 57.336L160.59 57.1511L159.298 57.9829L158.221 59.1537L153.698 67.6262L152.036 68.3656L148.528 68.5813L146.867 67.9035L145.913 67.2873L143.913 65.1923L143.39 64.8842L142.99 64.3913L142.374 64.0216L139.882 63.6826L138.128 64.3296L136.99 65.0691L134.374 63.4978L128.866 62.5735L127.851 61.6184L126.958 60.4785L125.881 60.3553L120.681 61.1563L116.773 60.3861L115.943 61.0331L114.712 63.3437L112.589 64.114L111.604 65.0383L111.45 65.7161L111.327 66.4555L111.296 67.5646L109.389 68.3348L105.142 67.1949L104.004 67.3181L103.173 68.5197L102.404 70.1526L101.481 73.3875L100.619 73.9113L99.2651 72.2784L97.6343 71.3849L91.3879 71.1385L89.6032 70.0293L88.3417 67.7803L86.8647 65.9625L86.3108 60.3244L87.6032 59.0305L88.5263 57.3976L88.157 56.2884L87.6339 55.4258L87.0185 55.1177L86.9878 54.101L88.5263 53.3616L90.2186 53.608L89.634 52.3449L88.9263 51.3282L88.0647 50.5579L86.9262 48.2164L86.1877 47.323L84.8646 46.3679V43.5026L84.6184 40.6066L82.6799 34.6604L86.957 33.6129L87.4493 32.8426L87.3262 31.5486L86.7416 30.7168L86.4031 29.9774L86.6185 29.0223L87.4493 28.1904L87.757 26.7732L87.5416 24.2469L86.5877 22.3059L84.0646 18.6396L81.8799 14.2031L84.1569 13.3096L85.4492 13.0631L86.6185 12.6626L89.5417 9.42763L98.8036 5.05272L110.404 2.86527L115.604 1.07834L123.789 0.308105H128.835L129.512 0.554579L130.62 1.54047L131.051 1.75614L131.666 1.91018L142.159 8.19526L144.067 10.6908L144.374 11.2762L144.682 12.108L144.713 12.8166L144.159 13.0631L143.697 12.1388L143.144 11.7383L142.774 10.7216L142.251 10.0746L140.805 7.60989L140.528 7.45584L139.451 7.24018L139.174 7.11694L138.867 6.62399L138.005 6.3159L136.19 5.05272L134.374 4.19007L134.097 3.78955L133.082 3.01932L132.836 2.89608L132.466 3.05012L132.251 3.32741L131.82 4.83706L131.759 5.20677V5.977L131.943 6.16186L132.682 6.50076L133.205 7.36341L133.636 8.3185L133.513 9.08873V9.42763L133.882 9.82815L133.697 10.8449L134.036 11.307L134.62 11.1838L135.143 10.506L134.959 11.3994L135.205 12.108L135.574 12.6934L136.374 15.0965L136.59 15.6203L136.466 16.8218L136.497 18.9169L136.713 20.8887L137.143 21.7821L137.605 21.9362L138.559 22.6448L139.02 22.8296L139.451 22.8604L139.944 23.0145L140.405 23.3226L140.59 23.7847L141.082 24.4933L146.251 26.1878L147.39 26.2495L148.375 25.7257L148.621 26.003L148.99 26.1878L149.821 26.4651L161.329 24.7398L163.852 23.5074L165.052 23.1993L166.037 22.768L167.914 20.7962L168.437 20.5498L168.775 20.827L163.329 25.0479L162.006 25.7257L160.713 26.0954L158.036 26.3419L156.775 26.8348V27.1429L157.483 28.098L157.821 28.2829L157.483 28.591L157.39 29.3304L158.16 29.7925L160.867 30.1314L161.606 30.039V30.4395L161.483 30.5319V30.5319Z" fill="#BFCBD9" stroke="#705454" stroke-width="1.64547" stroke-linecap="round" stroke-linejoin="round"/>
<path d="M69.1711 159.068L71.8481 158.575L73.1097 158.883L76.556 160.793L77.1098 162.026L77.2022 163.628L78.5253 166L81.51 167.664L83.1716 169.512L86.7102 170.775L93.0489 169.666L94.1874 167.017L95.4797 166.739L99.0799 166.77L102.465 167.695L105.511 169.666L105.203 171.084L104.803 172.316L104.034 172.809L103.634 173.856L103.818 175.982L104.526 177.8L106.342 178.231L108.219 177.831L109.388 178.17L110.465 179.063L109.603 181.127L109.973 186.149L110.373 188.583L109.357 189.23L108.28 189.477L107.234 189.415L106.219 189.754L105.419 190.617L103.634 194.714L103.326 195.916L103.142 197.179L102.649 198.658L101.665 199.305L100.218 201.215L99.1106 203.772L96.5567 207.562L94.3412 211.783L93.6335 214.494L92.5565 216.404L90.6796 216.712L89.0795 217.944L86.864 223.459L86.741 224.045L85.8794 223.521L85.1717 223.428L84.3409 223.952V224.599L85.3255 226.078L85.664 226.941L85.9102 227.957L86.2179 228.912L86.7717 229.498L87.541 229.929L88.0949 230.545L88.4026 231.408L88.4641 232.579L88.8641 233.102L88.9257 233.749L88.7103 234.15L88.341 234.027L87.8795 233.226L87.6948 233.102H87.2333L87.1717 233.226V233.811L86.8025 233.996L86.2486 233.811H85.9717L85.6025 234.058L85.1101 234.766L84.8024 235.043L84.0947 235.228L83.4793 235.167L82.8639 235.259L82.187 235.844L81.6331 236.707L81.2946 237.354L80.9254 237.878L80.2484 238.371L79.2945 239.665L78.0637 239.757L76.7714 239.079L75.7252 238.124L75.1713 237.416L74.8944 236.8L74.5251 235.167L74.2174 234.273L73.2943 233.287L72.8943 232.579L72.4328 231.963L71.6635 230.545L71.2327 229.929L70.5558 229.436L69.1711 228.943L68.648 228.204L68.5557 227.803V226.91L68.3403 226.478L68.0634 226.386H66.6479L65.8479 226.725L65.4479 226.417L65.3248 226.14L64.9248 224.907L63.9401 224.722L63.6324 223.86L63.8786 223.089L64.494 223.244L64.2786 222.535L64.9248 222.288L65.3864 221.888L65.9402 221.549L66.4018 221.179L66.6172 220.532L67.1095 220.378L68.0941 220.656L68.6172 220.532L68.8942 220.132L69.5403 219.516L69.725 219.177L69.7865 218.283L70.0019 217.852L69.9096 217.328L70.8635 216.928L70.5865 216.003L67.9711 213.231L67.0172 212.707L66.0325 212.43H64.9248L64.5248 212.491L64.0632 213.6L63.694 214.093L63.2017 214.186L62.7093 213.97L61.7554 213.231L60.4631 213.107L58.5553 214.956L57.263 215.202L57.1707 214.894L57.263 214.586L57.6938 214.216L57.7553 213.631L57.6015 212.984L57.3245 212.306L56.9245 211.567L56.5245 211.166L56.0014 211.074L54.1859 211.783H53.3551L53.1398 211.721L51.6012 209.071L51.4474 208.455L50.6781 208.394L48.1242 209.01L47.8165 208.886L47.6011 208.671L47.1703 208.055L46.8318 207.808L40.7085 205.651L39.4162 205.775L39.1393 206.114L38.8316 206.637L38.4931 207.007L38.0623 206.853L37.8777 206.453L38.0008 205.497L37.97 205.035L37.6007 204.142L37.1392 203.741L36.5853 203.495L35.9699 203.002L35.6622 202.478L35.293 201.677L35.016 200.814L34.9237 200.106L35.1391 199.212L35.3853 198.719L35.416 198.226L34.9237 197.456L34.1237 197.025L32.3698 196.994L32.0929 196.285L31.939 195.546L31.6005 195.361L31.2005 195.638L30.9236 196.285L30.8005 196.778L30.462 196.871L30.0312 196.655L29.662 196.285L29.4158 195.793L27.8773 195.454L27.2927 194.93L27.0465 195.546L26.6157 195.885L26.2465 196.008L25.9696 196.285L26.0926 196.84L26.585 197.241L27.0465 197.918L27.0773 199.336L26.708 199.921L26.585 200.352L26.6465 200.691L26.6773 202.386L26.6157 202.786L23.1079 202.54L22.0002 202.848L21.354 202.817V201.924L21.7848 201.215L22.8618 199.983L24.431 196.285L25.7849 192.804L25.8772 192.249V191.294L25.9388 190.832L26.0926 190.493L26.5542 189.939L26.6157 189.292L26.6465 188.059L26.8927 186.704L27.3234 185.379L27.8465 184.362L27.6004 184.054L27.7542 182.637L27.3234 181.682L26.6157 180.85L26.0619 179.864L25.8157 178.601L25.6311 176.506L26.2157 176.167L31.139 173.579H32.0005L33.816 175.15L34.7083 175.212L36.2468 172.532L37.2623 171.299L39.5085 170.529L43.8163 172.901L46.001 172.378L49.3858 167.879L52.4013 161.964L53.0782 161.471L54.1552 161.101L55.0783 160.177L55.5091 158.883L56.1245 158.051L60.7708 158.914L61.5708 159.807L61.6939 161.533L63.3863 163.72L65.8171 163.166L67.6941 161.533L69.1711 159.068V159.068Z" fill="#3FB5CF" stroke="#705454" stroke-width="1.64547" stroke-linecap="round" stroke-linejoin="round"/>
<path d="M86.865 65.9625L85.6958 65.5928L84.5265 65.6236L83.4495 66.1165L82.6495 67.5337L82.0341 69.2282L81.2648 72.5248L80.3417 72.6789L74.7108 72.5556L74.003 73.5415L74.0338 75.5749L74.5261 77.4235L76.4339 79.3028L78.7417 79.8882L79.8802 80.4736L80.8341 81.706L81.0494 83.1848L80.0956 84.3556L79.3878 85.6496L78.4955 86.4814L76.2185 87.19L71.7876 89.8088L69.326 93.7216L66.3412 96.5252L64.4642 97.2646L62.5565 97.5111L60.6795 96.402L58.9871 95.8166L59.541 93.4135L58.741 90.8871L57.2024 90.5482L55.5408 90.7947L53.9408 92.0579L51.1715 95.6009L49.6329 96.7409L43.325 96.7101L38.1248 98.497L36.3709 98.5894L36.9863 99.4213L37.8171 99.5753L36.6786 101.794L34.7709 103.981L33.1708 104.227L28.0629 102.533L25.0782 104.197L23.1089 108.479L20.7088 111.868L19.1703 112.515L16.5548 112.947L15.9087 113.963L15.1394 116.674L13.3547 114.641L11.5393 113.932L10.6469 112.7L10.0623 112.423L9.7546 112.115L8.7084 110.05L8.21608 109.496L4.95443 107.062L4.12363 106.631L3.13898 105.429L2.52357 105.152L1.84662 105.121L1.20045 104.905L0.646579 104.474L0.308105 103.765L1.10813 103.057L1.44661 102.441L1.56969 101.485L1.50815 100.838L1.10813 99.0516L0.923512 98.5278V98.2197L2.43126 97.1106L4.27748 96.1247L6.09293 94.6766L7.04681 93.6908L7.44682 92.7665L7.53913 92.3352L8.46224 89.4391L8.4007 88.6997L8.21608 87.9602L8.093 87.1284L8.18531 86.4506L8.4007 85.8344L8.7084 85.3723L9.01611 85.1874L9.26227 84.8793L10.0315 83.2772L9.63151 82.9075L9.5392 82.6302L9.04688 82.2297L8.86226 81.8908L8.76995 81.3979L8.7084 80.0423L7.84684 76.0679L7.53913 73.3875L6.89296 72.3092L6.58525 71.2308L5.84676 70.0601L5.6006 69.0126V67.8726L5.66214 65.9625L5.6006 65.4695L4.9852 63.4361L4.52364 62.4194L4.64672 61.6184L4.58518 60.1703L4.89288 60.1395L5.44675 59.8931L5.84676 59.5233L5.90831 59.092L5.35444 58.7223L5.66214 58.5374V58.1677L5.35444 58.0137L5.53906 57.6132L5.81599 57.8905L6.64679 58.3834L6.98527 59.4001L7.41605 59.739L8.27762 60.1395L8.89303 60.7865L9.2315 61.0638L10.5546 61.3103L12.2162 61.8956L12.7701 62.3578L13.2624 63.0356L14.2471 64.9766L14.6163 65.4387L14.7702 65.2847L14.8009 64.4528L14.9548 63.9599L15.2009 63.6518L15.6317 63.3129V62.6043L15.2933 62.5118L14.524 62.4502L14.1548 62.2654L13.2009 59.9547L13.4163 58.8147L14.1548 56.5657L14.524 56.8738L15.1394 56.5657H15.6317L15.4163 55.2409L15.5394 54.1933L15.724 53.2691L15.8471 52.2832H15.6317L15.5394 52.8994L15.324 53.3307L14.5855 54.0701L14.2778 54.1625L13.9394 53.7004L14.5855 52.9918L14.1548 52.1291L13.4163 51.6978L10.0315 51.3589L9.5392 50.8043L9.93922 49.7876L9.7546 49.4487L9.44689 49.9725L9.20073 50.0341L8.58532 49.7876L8.30839 49.9109L7.63144 50.8351L8.55455 51.02L9.04688 51.2357L9.32381 51.5746L9.26227 52.2216L8.9238 52.6837L8.55455 52.8377L8.27762 52.6529L7.41605 53.1767L6.58525 53.3615V53.7004L6.98527 53.8853L6.58525 54.0701L6.27755 54.0393L5.78522 53.762L5.44675 53.7004L4.92365 53.3615L3.44668 51.2357L2.67742 50.8968L2.43126 50.0957L1.87739 49.4179L2.43126 49.1715L2.95435 47.7542L3.44668 48.0007L3.78515 48.278L4.73903 48.6169L7.75453 48.8942L8.98534 48.6169L10.1546 48.0007L12.3701 46.3678L20.4627 42.7323L27.4783 40.8838L36.0017 37.2791L41.5096 35.8003L47.5713 34.1674L53.51 31.4562L58.4333 30.84L61.8488 29.7L61.4487 30.0697L59.941 30.7784L60.5872 31.2405L63.295 30.7784L63.0796 30.4395V30.0389H64.5565L64.3412 29.7L64.4027 28.8374L63.695 28.8066L62.0334 29.3303L63.0796 28.8066L64.3412 27.9747L66.2489 25.7256L65.8797 26.5267L65.172 27.2353L65.2027 27.5434L65.7566 27.4202L66.2489 27.2045L66.6489 26.7115L67.7259 26.1878L68.1259 25.7256L67.7567 24.9554H67.172L66.4335 25.7256L67.7259 23.4766L71.2952 18.886V19.2249L71.1106 19.7179L71.4183 19.8719L71.9414 19.687L72.3107 19.2249L72.5261 18.5163L72.3414 18.3006L71.9414 18.4547L71.4799 18.886L72.0953 17.6228L73.1722 16.5445L75.2646 15.2505L81.6649 14.2954L81.8802 14.203L84.0649 18.6395L86.5881 22.3058L87.542 24.2468L87.7574 26.7732L87.4497 28.1904L86.6189 29.0222L86.4035 29.9773L86.742 30.7167L87.3266 31.5486L87.4497 32.8426L86.9574 33.6128L82.6803 34.6603L84.6188 40.6065L84.865 43.5026V46.3678L86.1881 47.3229L86.9266 48.2164L88.0651 50.5579L88.9267 51.3281L89.6344 52.3448L90.219 53.608L88.5266 53.3615L86.9881 54.1009L87.0189 55.1176L87.6343 55.4257L88.1574 56.2884L88.5266 57.3975L87.6035 59.0304L86.3112 60.3244L86.865 65.9625V65.9625Z" fill="#BFCBD9" stroke="#705454" stroke-width="1.64547" stroke-linecap="round" stroke-linejoin="round"/>
<path d="M58.9865 95.8167L58.3711 98.7744L58.4942 102.009L55.5094 105.861L56.4325 106.723L57.1095 109.25L56.8018 110.02L56.2171 110.42L53.3247 111.345L52.8324 111.283L52.617 111.745L52.5863 112.885L52.4632 113.963L52.5863 116.798L53.6632 119.786L54.0325 121.542L54.2786 123.391V124.901H53.4478L52.8016 125.363L54.094 127.673L54.7094 129.152L54.7709 132.264L53.7863 135.191L53.6324 135.93L53.5709 136.701L53.2017 138.179V139.843L53.4171 141.414L54.1555 142.493L54.9863 143.355L56.6787 144.28L57.2326 145.82L57.9403 147.114L59.0172 148.223L60.1558 148.254L60.6788 148.008L61.2019 148.346L61.2327 149.332L60.9558 150.287L60.8327 152.013L61.2635 153.338L62.5866 154.231L63.9713 154.693L66.2175 153.183L68.2176 155.371L69.1715 159.068L67.6945 161.533L65.8175 163.166L63.3866 163.72L61.6943 161.533L61.5712 159.807L60.7712 158.914L56.1248 158.051L55.5094 158.883L55.0786 160.177L54.1555 161.101L53.0786 161.471L52.4016 161.964L49.3861 167.879L46.0014 172.378L43.8167 172.901L39.5089 170.529L37.2626 171.299L36.2472 172.532L34.7087 175.212L33.8164 175.15L32.0009 173.579H31.1393L26.2161 176.167L25.6314 176.506L25.5391 175.212L25.7853 174.596L25.4776 173.918L24.893 173.302L24.4314 172.932L23.7237 172.593L22.3083 172.162L21.6005 171.761L20.9544 171.299L18.9543 170.622L18.2773 169.913L18.0927 169.05L18.3389 168.064L18.9543 167.14L19.3235 166.154L19.262 164.829L18.9543 163.566L18.5543 162.734L17.0773 161.471L16.3696 160.67L16.0619 159.407L15.9388 158.082L15.508 157.528L14.9541 157.127L14.4618 156.357L14.3695 155.309L14.7695 154.447L16.5234 152.66L17.1081 151.89L17.5696 150.996L17.8158 150.01L17.9389 146.991L18.0927 146.498L18.7697 145.296L18.8927 144.803L19.0466 143.91L19.2928 143.479L19.8466 142.77L17.8466 141.291L17.5389 140.552L17.7235 139.258L18.0619 138.364L18.185 137.625L17.7235 136.947V136.639L18.3389 135.838V134.821L17.8773 133.928L17.0158 133.558L16.1542 133.342L15.108 132.819L14.4003 132.048L14.5849 131.124L13.9695 129.676L13.231 127.458L13.0464 125.455L14.6464 124.069L15.3849 122.867L15.8773 121.696L15.7542 121.173L15.1695 120.618L15.4157 119.447L16.2773 117.66L15.3234 116.859L15.1388 116.675L15.908 113.963L16.5542 112.947L19.1697 112.515L20.7082 111.868L23.1083 108.479L25.0776 104.197L28.0623 102.533L33.1702 104.228L34.7702 103.981L36.678 101.794L37.8165 99.5754L36.9857 99.4214L36.3703 98.5895L38.1242 98.4971L43.3244 96.7102L49.6323 96.741L51.1708 95.6011L53.9401 92.058L55.5402 90.7948L57.2018 90.5483L58.7403 90.8872L59.5403 93.4136L58.9865 95.8167V95.8167Z" fill="#BFCBD9" stroke="#705454" stroke-width="1.64547" stroke-linecap="round" stroke-linejoin="round"/>
<path d="M86.8651 65.9625L88.3421 67.7802L89.6037 70.0293L91.3883 71.1384L97.6347 71.3849L99.2655 72.2784L100.619 73.9113L99.7886 75.8214L97.5732 78.7483L97.9424 80.2888L100.527 82.3222L102.004 85.6496L99.204 88.0219L99.4809 90.2093L100.435 92.0271L100.004 95.2004L98.6194 98.4046L101.112 99.298L103.42 101.054L104.927 104.382L104.281 107.955L103.912 108.664L103.42 108.849L102.866 108.818L102.343 109.188L102.158 110.513L103.266 111.56L103.727 112.762L104.343 113.748L105.573 113.994L106.804 113.563L107.358 113.07L108.312 113.902L108.589 114.579L108.712 115.411L108.958 115.719L109.297 115.904L111.266 116.582L113.389 116.705L115.697 117.968L118.835 120.834L119.912 121.419L121.051 121.481L122.097 121.912L122.989 123.021L123.974 123.976L127.082 124.777L128.128 124.315L129.913 122.22L130.497 122.374L130.928 122.682L131.174 123.607L131.544 124.408L132.128 125.27L132.867 125.517L133.328 125.239L133.636 124.685L134.19 124.438L134.774 124.377L135.851 124.87L136.775 125.979L141.852 130.138L142.682 132.048L143.79 131.956L146.99 130.6L148.067 130.446L150.99 132.664L151.052 134.297L151.637 135.56L152.098 135.684L152.16 136.177L150.283 137.994L147.206 139.319L146.898 140.706L146.621 143.848L145.052 145.666L143.021 146.159L141.944 146.036L140.99 146.128L140.559 147.668L140.344 149.363L140.682 151.119L141.267 152.721L141.144 154.292L139.667 156.88L139.329 157.281L134.867 156.788L133.113 157.62L132.344 158.698L130.897 162.118L130.128 165.137L129.974 168.403L130.282 171.114L130.313 173.733L129.451 176.075L128.005 177.122L126.343 176.29L124.805 176.783L124.282 178.324L123.513 179.525L121.297 180.049L120.805 181.127L120.866 182.729L121.451 184.085L123.205 185.656L123.513 186.981L123.697 189.292L120.22 191.387L116.589 192.712L114.62 192.619L113.02 191.294L112.835 190.124L112.435 189.045L111.42 188.522L110.374 188.583L109.974 186.149L109.604 181.127L110.466 179.063L109.389 178.17L108.22 177.831L106.343 178.231L104.527 177.8L103.82 175.982L103.635 173.856L104.035 172.809L104.804 172.316L105.204 171.083L105.512 169.666L102.466 167.694L99.0809 166.77L95.4808 166.739L94.1884 167.017L93.0499 169.666L86.7112 170.775L83.1727 169.512L81.5111 167.664L78.5263 166L77.2032 163.628L77.1109 162.026L76.557 160.793L73.1108 158.883L71.8492 158.575L69.1722 159.068L68.2183 155.371L66.2182 153.183L63.972 154.693L62.5873 154.231L61.2642 153.337L60.8334 152.013L60.9565 150.287L61.2334 149.332L61.2026 148.346L60.6795 148.007L60.1564 148.254L59.0179 148.223L57.941 147.114L57.2333 145.82L56.6794 144.279L54.987 143.355L54.1562 142.493L53.4177 141.414L53.2024 139.843V138.179L53.5716 136.7L53.6331 135.93L53.787 135.191L54.7716 132.264L54.7101 129.152L54.0947 127.673L52.8023 125.363L53.4485 124.9H54.2793V123.391L54.0332 121.542L53.6639 119.786L52.5869 116.798L52.4639 113.963L52.5869 112.885L52.6177 111.745L52.8331 111.283L53.3254 111.344L56.2178 110.42L56.8025 110.02L57.1102 109.249L56.4332 106.723L55.5101 105.86L58.4949 102.009L58.3718 98.7743L58.9872 95.8166L60.6795 96.402L62.5565 97.5111L64.4643 97.2646L66.3413 96.5252L69.326 93.7216L71.7876 89.8088L76.2186 87.19L78.4956 86.4814L79.3879 85.6496L80.0956 84.3556L81.0495 83.1848L80.8341 81.706L79.8802 80.4736L78.7417 79.8882L76.434 79.3029L74.5262 77.4235L74.0339 75.575L74.0031 73.5415L74.7108 72.5557L80.3418 72.6789L81.2649 72.5248L82.0342 69.2283L82.6496 67.5338L83.4496 66.1165L84.5266 65.6236L85.6958 65.5928L86.8651 65.9625V65.9625Z" fill="#BFCBD9" stroke="#705454" stroke-width="1.64547" stroke-linecap="round" stroke-linejoin="round"/>
<path d="M153.698 67.6263L156.344 72.8331L157.113 75.0205L158.036 76.8075L158.498 77.4853L159.237 77.7934L159.821 77.8242L162.16 78.5944L165.421 80.597L168.929 81.5213L170.652 82.7228L172.222 86.728L172.683 91.411L171.206 92.6126L169.637 93.352L169.822 94.3071L169.852 95.3238L170.098 96.8334L170.006 97.8193L169.852 98.836L169.545 99.6987L168.96 99.6063L168.406 99.2058L167.821 98.9593L167.144 99.6063L166.591 100.469L165.298 101.547L163.821 101.362L164.283 103.427L164.129 105.306L163.514 105.984L163.267 107.031L163.606 108.079L164.098 109.034L164.991 111.191L165.021 112.854L163.698 113.224L161.637 119.232L160.837 120.895L160.652 122.836L161.298 123.483L161.421 124.408L159.144 128.166L159.021 129.029L158.836 129.892L158.221 129.861L157.636 129.953L157.267 130.539L156.99 131.093L155.821 131.463L152.036 131.525L151.513 131.833L151.298 132.295L150.99 132.665L148.067 130.446L146.99 130.6L143.79 131.956L142.682 132.048L141.851 130.138L136.774 125.979L135.851 124.87L134.774 124.377L134.189 124.438L133.636 124.685L133.328 125.24L132.866 125.517L132.128 125.27L131.543 124.408L131.174 123.607L130.928 122.682L130.497 122.374L129.912 122.22L128.128 124.315L127.082 124.777L123.974 123.976L122.989 123.021L122.097 121.912L121.051 121.481L119.912 121.419L118.835 120.834L115.696 117.969L113.389 116.705L111.266 116.582L109.296 115.904L108.958 115.719L108.712 115.411L108.589 114.58L108.312 113.902L107.358 113.07L106.804 113.563L105.573 113.994L104.342 113.748L103.727 112.762L103.265 111.56L102.158 110.513L102.342 109.188L102.865 108.818L103.419 108.849L103.911 108.664L104.281 107.956L104.927 104.382L103.419 101.054L101.111 99.2982L98.6189 98.4047L100.004 95.2006L100.434 92.0272L99.4805 90.2095L99.2036 88.022L102.004 85.6497L100.527 82.3223L97.942 80.2889L97.5728 78.7484L99.7882 75.8216L100.619 73.9114L101.481 73.3876L102.404 70.1527L103.173 68.5198L104.004 67.3182L105.142 67.195L109.389 68.3349L111.296 67.5647L111.327 66.4556L111.45 65.7162L111.604 65.0383L112.589 64.1141L114.712 63.3438L115.943 61.0332L116.773 60.3862L120.681 61.1564L125.881 60.3553L126.958 60.4786L127.851 61.6185L128.866 62.5736L134.374 63.4979L136.99 65.0692L138.128 64.3297L139.882 63.6827L142.374 64.0216L142.99 64.3914L143.39 64.8843L143.913 65.1924L145.913 67.2874L146.867 67.9036L148.528 68.5814L152.036 68.3657L153.698 67.6263V67.6263Z" fill="#3FB5CF" stroke="#705454" stroke-width="1.64547" stroke-linecap="round" stroke-linejoin="round"/>
<path d="M172.776 205.467L175.391 205.96L175.76 206.175L175.883 206.73V207.315L175.73 207.716L173.637 208.055L172.499 210.242L173.329 211.259L175.637 211.906L176.714 212.738L177.545 214.648L179.022 216.435L177.791 216.62L175.668 218.406L175.053 219.731L176.13 220.286L178.222 220.594L179.084 220.933L179.268 221.98L179.36 222.843L175.483 225.308L174.499 225.462L172.806 225.308L171.114 225.585L168.406 227.68L167.606 227.865H166.837L165.145 226.879L164.314 228.111L163.452 229.837L162.129 231.747L160.067 231.47L159.114 232.209L160.744 233.842L162.16 235.814L154.898 244.009L154.221 245.026L153.544 246.412L153.206 248.014L153.821 248.815L154.621 248.908L155.298 249.739L155.36 251.342L156.283 252.974L157.821 253.591L158.467 254.731L158.929 256.209L159.914 257.134L161.052 257.657L163.144 258.027L163.021 259.259L162.498 260.338L162.252 261.324L162.621 262.186L163.36 262.679L163.514 263.203L163.175 263.234L163.052 263.45L160.406 266.407L160.16 266.592L159.421 266.839L158.467 266.808L157.883 266.962L157.39 267.208L156.929 267.609L156.529 268.287L156.037 269.827L156.252 270.258L156.037 270.659L155.575 270.69L155.36 271.614L155.267 272.199L155.052 272.569L154.098 272.97L153.329 273.124L153.021 273.093L152.098 272.507L151.821 272.384L151.175 272.569L149.975 273.247L149.206 273.308L148.59 273.185L148.436 272.661L148.559 271.121L148.467 270.412L148.344 269.765L148.313 269.088L148.559 268.317L147.667 267.763L144.652 267.486L144.775 266.685L144.682 265.699L144.251 263.696L143.759 262.433L143.605 261.971L143.39 260.338L143.267 259.968L142.805 259.629L142.344 259.722L141.851 259.937L141.421 259.968L141.021 259.722L140.436 259.013L140.036 258.705L139.574 258.551L138.651 258.489L138.221 258.181L138.036 257.842L137.728 256.456L137.02 254.946L136.467 253.498V252.235L137.297 251.249L136.497 250.818L136.374 250.232L136.436 249.493L136.251 248.63L135.79 248.353L134.59 249.123H133.882L131.605 247.86L130.405 247.46L129.297 247.614L129.389 247.768L128.528 248.507L128.066 248.6L127.451 248.107L127.297 247.768L126.959 246.782L126.589 246.504L125.882 246.35L125.512 246.196L124.528 245.365L124.066 245.087L122.128 244.718L121.728 244.255L121.912 243.393L120.128 242.191L119.697 242.099L119.728 241.298L121.574 237.724L125.42 236.892L127.266 235.506L130.22 234.119L130.559 232.702L130.589 230.268L130.066 224.075L130.343 223.089L130.989 222.966L131.666 222.658L131.728 221.765L131.39 220.933L131.79 219.854L132.713 219.639L137.144 219.67L136.805 217.914L135.82 216.866L134.836 216.096L134.005 214.987L133.42 213.169L134.159 211.166L134.713 208.147L135.513 206.422L137.913 204.85L138.128 203.125L137.728 202.232L137.544 201.122L137.759 200.383L138.159 199.921L139.205 196.162L140.744 195.423L145.082 195.269L146.067 194.807L147.052 194.129L148.129 194.344L149.052 195.3L153.083 197.456L155.052 197.888L157.514 197.857L158.56 196.932L160.621 197.333L162.468 199.027L165.329 203.618L166.375 203.926L169.422 203.772L172.776 205.467V205.467Z" fill="#3FB5CF" stroke="#705454" stroke-width="1.64547" stroke-linecap="round" stroke-linejoin="round"/>
<path d="M158.836 129.892L161.79 131.925L165.021 132.603L166.59 133.342L169.421 135.653L175.79 134.328L176.775 133.312L177.913 133.219L178.744 134.297L179.483 135.561L180.437 136.084L181.514 136.393L182.375 136.978L182.744 138.272L182.867 140.028L183.483 141.414L183.914 141.661L184.406 141.538L186.498 142.4L187.698 143.201L188.129 143.725L187.791 146.221L186.775 146.837L187.021 147.884L187.852 148.839L188.591 149.949L188.498 150.873L188.775 151.674L189.883 152.044L193.145 151.674L195.176 152.598L197.391 154.323L199.206 156.757L199.391 157.558L199.114 158.144L198.806 158.606L198.653 159.222L198.93 160.639L200.591 162.365L201.053 163.628L200.96 164.799L200.591 165.63L198.345 165.322L196.529 164.306H194.129L193.329 167.109L194.252 169.297L194.529 170.806L194.652 172.378L194.899 173.179L196.006 173.733L196.406 174.165V175.767L195.914 177.122L193.945 178.971L193.545 180.296L193.637 181.744L192.775 182.391L191.637 185.194L190.622 185.656L189.606 185.81L188.621 186.303L186.498 188.337L185.514 188.614L182.129 188.121L181.175 188.491L180.437 189.477L179.667 192.434L181.052 194.56L182.006 195.331L182.314 196.963L182.067 198.535L181.36 199.367L177.329 196.409L176.252 196.594L175.852 198.165L175.821 199.736L175.944 201.246L175.421 202.725L174.375 203.433L173.482 204.265L172.775 205.467L169.421 203.772L166.375 203.926L165.328 203.618L162.467 199.028L160.621 197.333L158.559 196.933L157.513 197.857L155.051 197.888L153.082 197.456L149.051 195.3L148.128 194.345L147.051 194.129L146.066 194.807L145.081 195.269L140.743 195.423L139.204 196.162L136.897 194.314L136.189 192.897L135.358 191.911L134.989 192.096L134.712 192.619L134.312 192.958L132.158 193.02L125.296 191.264L124.404 190.524L123.696 189.292L123.511 186.981L123.204 185.656L121.45 184.085L120.865 182.73L120.804 181.127L121.296 180.049L123.511 179.525L124.281 178.324L124.804 176.783L126.342 176.29L128.004 177.122L129.45 176.075L130.312 173.733L130.281 171.114L129.973 168.403L130.127 165.138L130.896 162.118L132.343 158.698L133.112 157.62L134.866 156.788L139.327 157.281L139.666 156.881L141.143 154.293L141.266 152.721L140.681 151.119L140.343 149.363L140.558 147.669L140.989 146.128L141.943 146.036L143.02 146.159L145.051 145.666L146.62 143.848L146.897 140.706L147.205 139.319L150.282 137.995L152.159 136.177L152.097 135.684L151.636 135.561L151.051 134.297L150.989 132.665L151.297 132.295L151.512 131.833L152.036 131.525L155.82 131.463L156.99 131.093L157.267 130.539L157.636 129.953L158.22 129.861L158.836 129.892V129.892Z" fill="#BFCBD9" stroke="#705454" stroke-width="1.64547" stroke-linecap="round" stroke-linejoin="round"/>
<path d="M275.025 131.987L274.04 133.835L271.117 138.148L270.255 140.213L269.24 141.507L268.04 141.969L264.44 140.089L263.209 139.812L262.655 140.182L262.132 140.736L261.947 141.353L261.793 142.092L260.101 143.509L256.716 143.17L255.547 143.324L252.624 145.512L251.547 145.851L249.978 145.573L245.793 146.405L241.362 146.375L239.023 147.052L236.839 148.685L237.023 149.948L237.516 151.335L238.131 152.629L238.254 153.954L238.993 155.802L240.07 157.435L238.377 158.483L237.208 160.146L238.746 162.519L238.562 163.658L237.793 164.398L235.608 165.168L233.392 164.798L232.285 164.367L231.177 164.644L230.869 165.908L230.9 166.431L231.3 167.078L231.731 167.633L232.592 168.033L234.162 168.341L234.716 168.311L235.454 167.972L235.762 168.003L236.223 168.311L236.346 168.742L236.316 169.327L236.377 170.005L236.931 170.868L237.023 171.484L236.562 172.039V172.377L237.516 172.47L237.485 174.473L236.746 175.52L236.008 176.105L235.946 177.307L237.177 178.786L236.993 180.172L236.623 181.682L236.685 182.699L236.346 182.76L236.069 183.007L235.669 183.777L235.116 186.827L234.746 187.967L234.716 188.522L234.777 188.922L235.054 189.785L235.3 191.356L236.039 193.235L226.254 195.3L221.177 193.697L218.807 193.482L216.715 192.126L216.53 191.387L216.407 190.555L215.484 189.538L215.207 187.875L214.284 187.566L213.33 188.491L212.438 189.723L211.422 190.308L207.145 190.986L203.453 190.216L202.653 189.631L202.007 188.583L201.299 187.782L196.253 184.67L195.33 182.36L193.637 181.743L193.545 180.295L193.945 178.971L195.914 177.122L196.407 175.767V174.164L196.006 173.733L194.899 173.179L194.653 172.377L194.53 170.806L194.253 169.297L193.329 167.109L194.13 164.305H196.53L198.345 165.322L200.591 165.63L200.961 164.798L201.053 163.628L200.591 162.364L198.93 160.639L198.653 159.222L198.807 158.606L199.114 158.144L199.391 157.558L199.207 156.757L197.391 154.323L195.176 152.598L193.145 151.674L189.883 152.043L188.775 151.674L188.499 150.873L188.591 149.948L187.852 148.839L187.022 147.884L186.775 146.837L187.791 146.22L188.129 143.725L187.699 143.201L186.498 142.4L184.406 141.537L183.914 141.661L183.483 141.414L182.868 140.028L182.744 138.272L182.375 136.978L181.514 136.392L180.437 136.084L179.483 135.56L178.744 134.297L177.914 133.219L176.775 133.311L175.79 134.328L169.421 135.653L166.59 133.342L165.021 132.603L161.79 131.925L158.836 129.892L159.021 129.029L159.144 128.166L161.421 124.408L161.298 123.483L160.651 122.836L160.836 120.895L161.636 119.232L163.698 113.224L165.021 112.854L164.99 111.19L164.098 109.034L163.605 108.079L163.267 107.031L163.513 105.984L164.128 105.306L164.282 103.426L163.821 101.362L165.298 101.547L166.59 100.469L167.144 99.6062L167.821 98.9592L168.406 99.2056L168.959 99.6062L169.544 99.6986L169.852 98.8359L170.006 97.8192L170.098 96.8333L169.852 95.3237L169.821 94.307L169.636 93.3519L171.206 92.6125L172.683 91.4109L173.729 91.1336L174.621 90.3942L175.421 88.8229L176.621 88.4532L177.144 88.5456L177.637 88.8846L177.821 89.3467L178.098 89.6548L187.791 91.1644L190.099 90.7331L191.022 90.271L191.822 89.3467L192.314 87.6214L193.268 86.8511L194.437 86.9744L195.576 86.6663L199.853 84.1707L200.868 82.9384L201.976 82.0449L204.191 82.0757L206.13 81.6752L208.376 80.3812H211.299L214.069 79.4877L216.376 76.7149L219.115 76.9614L220.5 76.7457L221.761 75.8523L222.623 74.1269L223.392 73.7264L227.085 73.4183L227.485 75.2053L228.192 76.869L228.685 78.9024L229.454 84.8177L231.177 89.131L232.285 91.3185L233.916 92.1811L235.608 92.4276L237.023 93.5367L236.5 94.461L236.654 95.755L237.423 97.1414L238.593 97.7884L239.331 98.5895L239.793 99.8526L240.223 101.701L241.023 103.211L243.208 104.351L245.547 103.981L247.054 102.317L248.531 103.457L248.07 106.261L248.839 107.339L249.793 108.017L251.516 107.154L253.301 106.661L253.762 109.034L253.947 111.683L254.316 113.47L254.439 115.35L254.347 116.459L256.039 118.277L256.686 119.17L257.363 119.755L257.578 120.063L257.639 120.556L257.424 121.357L257.393 121.82L257.486 122.467L257.639 122.867L257.886 123.114L258.316 123.175L258.409 123.422L258.224 125.085L258.44 125.64L258.963 126.379L259.578 126.841L260.101 126.626L260.47 127.211L261.209 127.396L262.84 127.304L267.609 128.29L269.978 127.951L270.901 128.259L271.578 128.937L271.886 130.076L272.532 129.738L273.086 130.076L273.948 131.124L273.794 131.37L273.548 132.141L274.071 132.449L274.563 132.295L275.025 131.987V131.987Z" fill="#3FB5CF" stroke="#705454" stroke-width="1.64547" stroke-linecap="round" stroke-linejoin="round"/>
<path d="M236.039 193.235L236.162 193.913L235.793 194.406L235.331 194.56V194.899L235.885 195.33L235.977 196.285L235.762 198.381L235.546 198.781L235.577 199.366L235.885 199.582L236.008 200.198L236.777 203.187L236.931 204.234L237.023 204.881L237.054 206.668L236.808 208.578L236.593 209.349L236.223 210.211L235.762 210.951L235.208 211.228L234.408 211.351L233.885 211.752L233.023 213.231L231.546 214.956L231.331 215.695L231.177 216.65L230.808 217.39L229.854 218.53L229.3 219.023L227.331 219.516L224.408 220.84L224.808 221.826L224.223 222.442L223.454 222.905L222.684 223.059L222.1 222.812L220.223 224.445L220.1 224.507L219.546 224.568L219.577 225.154L219.207 225.4H219.023L218.715 225.154L218.561 225.832L218.192 226.17L217.854 226.355L217.669 226.602L217.638 227.002L217.146 227.28L216.623 228.019L216.069 228.235L215.484 227.588L215.053 227.434L214.746 227.495L213.484 228.111L212.561 228.974L212.099 229.097L209.822 229.159L209.515 229.282L208.961 229.898L208.653 230.083L207.822 230.145L207.422 230.422L206.93 230.114L206.53 230.391L206.099 230.823L205.607 231.069L204.438 229.929L204.222 230.237L204.038 231.069L203.391 231.716L203.022 231.778L202.776 232.117L202.653 232.887L202.222 233.287L201.238 233.78L200.868 234.366L200.745 234.889L199.822 235.845L195.791 235.752L193.545 234.396L192.96 233.164L191.576 231.192L191.053 230.083L190.529 227.865L189.145 225.092L186.775 223.49L184.191 222.689L183.175 221.611L181.975 220.964L179.083 220.933L178.221 220.594L176.129 220.286L175.052 219.731L175.667 218.406L177.791 216.62L179.021 216.435L177.544 214.648L176.714 212.738L175.637 211.906L173.329 211.259L172.498 210.242L173.637 208.055L175.729 207.716L175.883 207.315V206.73L175.76 206.175L175.39 205.96L172.775 205.467L173.483 204.265L174.375 203.433L175.421 202.725L175.944 201.246L175.821 199.736L175.852 198.165L176.252 196.594L177.329 196.409L181.36 199.366L182.068 198.535L182.314 196.963L182.006 195.33L181.052 194.56L179.668 192.434L180.437 189.477L181.175 188.491L182.129 188.121L185.514 188.614L186.499 188.337L188.622 186.303L189.606 185.81L190.622 185.656L191.637 185.194L192.776 182.391L193.637 181.744L195.33 182.36L196.253 184.67L201.299 187.782L202.007 188.583L202.653 189.631L203.453 190.216L207.145 190.986L211.423 190.308L212.438 189.723L213.33 188.491L214.284 187.566L215.207 187.875L215.484 189.538L216.407 190.555L216.53 191.387L216.715 192.126L218.807 193.482L221.177 193.698L226.254 195.3L236.039 193.235V193.235Z" fill="#BFCBD9" stroke="#705454" stroke-width="1.64547" stroke-linecap="round" stroke-linejoin="round"/>
<path d="M277.763 132.356L277.517 132.51H276.963L276.009 131.925L275.425 131.802L275.025 131.987L274.563 132.295L274.071 132.449L273.548 132.141L273.794 131.37L273.948 131.124L273.086 130.077L272.532 129.738L271.886 130.077L271.578 128.937L270.901 128.259L269.978 127.951L267.609 128.29L262.84 127.304L261.209 127.396L260.47 127.211L260.101 126.626L259.578 126.842L258.963 126.379L258.439 125.64L258.224 125.085L258.409 123.422L258.316 123.175L257.886 123.114L257.639 122.867L257.486 122.467L257.393 121.82L257.424 121.357L257.639 120.556L257.578 120.064L257.362 119.755L256.686 119.17L256.039 118.277L254.347 116.459L254.439 115.35L254.316 113.47L253.947 111.683L253.762 109.034L253.301 106.662L251.516 107.154L249.793 108.017L248.839 107.339L248.07 106.261L248.531 103.457L247.054 102.317L245.547 103.981L243.208 104.351L241.023 103.211L240.223 101.701L239.793 99.8527L239.331 98.5895L238.593 97.7885L237.423 97.1415L236.654 95.755L236.5 94.4611L237.023 93.5368L235.608 92.4277L233.915 92.1812L232.285 91.3185L231.177 89.1311L229.454 84.8178L228.685 78.9024L228.192 76.869L227.484 75.2053L227.084 73.4184L229.331 72.4325L233.7 72.7098L235.639 72.032L236.531 71.2925L237.485 70.892L239.793 70.5531L245.085 66.8868L248.039 63.5286L256.593 58.1986L258.347 56.3193L259.424 53.3L260.655 50.8968L260.778 48.4629L257.516 43.9031L255.978 42.3627L255.639 40.9147L255.485 39.3434L252.378 35.1841L255.27 31.0865L262.101 30.1314L264.132 28.745L265.886 26.8965L266.655 24.3393L266.563 23.9388L267.394 23.5074L268.04 23.5999L269.855 24.555L270.194 24.5858L270.901 24.4317L271.209 24.5241L271.548 24.863L271.855 25.6641L272.04 26.003L272.378 26.2495L273.425 26.3727L273.64 26.65L273.332 27.7591V28.3137L273.886 29.0839H274.594L275.332 28.7758L275.948 28.6526L276.502 28.8991L278.409 30.5011L279.579 31.2406L282.04 32.1648L283.21 33.1815L283.517 33.6437L284.071 34.722L284.348 35.1225L284.687 35.3382L285.333 35.523L285.61 35.6771L286.133 36.4473L286.533 37.4948L286.871 38.6656L287.117 39.7747L287.579 42.2086V43.4102L287.117 44.2112L286.748 44.5193L286.44 44.9507L286.41 45.5052L286.533 45.9674L286.779 46.3679L287.117 46.6452L287.394 47.1381L287.24 47.7235L287.271 49.2331L287.61 50.5271L288.01 51.7287L288.317 53.0227L288.594 55.7955L288.933 56.8738L289.671 57.9521L289.733 61.1563L290.471 64.761L293.056 72.8022L294.502 75.8215L295.118 77.4544L296.348 82.2914L296.902 83.7703L297.456 84.5097L297.764 85.2183L297.979 85.9885L298.349 86.7588L298.902 87.3749L299.426 87.7755L299.733 88.3916L299.672 89.6548L299.395 90.3942L299.026 91.0104L298.749 91.6882L298.687 92.7049L298.964 93.5676L299.887 94.7692L300.226 95.5086L300.287 95.9091L300.226 96.8642L300.472 98.2814L300.41 98.99L300.072 99.6678L299.979 100.068L300.01 100.623L300.226 101.177L300.318 101.578L300.626 109.249L300.226 111.437L298.995 112.947L294.933 115.719L289.794 117.198L287.087 118.8L284.379 121.049L280.656 126.811L279.425 128.32L278.871 129.214L277.425 132.141L277.763 132.356V132.356Z" fill="#BFCBD9" stroke="#705454" stroke-width="1.64547" stroke-linecap="round" stroke-linejoin="round"/>
<path d="M277.763 132.356L277.978 132.541L278.316 133.034L278.409 133.681L278.163 134.574L278.87 135.037L281.055 135.622L281.547 135.437L281.947 135.838L283.855 136.577L284.501 136.639V136.947L284.255 137.409L284.778 137.316L285.178 137.501L285.455 137.779L285.732 137.84L286.163 137.316L286.286 137.532L286.778 138.025L287.301 137.532L287.425 137.902L287.332 138.518L287.209 138.672L288.071 140.397L288.655 140.582L290.102 140.551L290.686 140.89L291.24 141.999L291.886 142.4L292.009 142.955L292.04 143.54L292.317 144.156L292.748 146.035L293.086 146.898L292.594 147.268L292.194 147.884L291.64 149.27L291.425 150.195L291.394 151.797L291.209 152.382L291.425 152.721L291.055 152.906L290.932 153.984L290.594 154.416L291.055 155.309L291.64 156.079L291.271 157.219L290.686 157.805L290.04 158.205L289.517 158.821L289.271 159.715L289.117 160.855L289.425 161.44L289.486 161.748L289.086 162.025L289.178 162.364L289.517 162.919L289.148 163.412L288.686 163.535V163.905L289.025 164.305L289.055 164.767L288.901 166.123L289.025 166.832L289.271 167.51L289.948 168.68H289.517L289.917 169.45L290.409 169.635L290.809 169.882L290.994 170.837L291.209 171.546L291.671 171.884L292.225 172.069L292.655 172.377L292.194 173.363L292.225 173.671L293.486 175.52L293.732 176.105L293.394 176.29L293.179 176.629L293.117 177.122L293.302 177.8L292.748 178.015L292.225 178.601L291.794 179.309L291.64 179.987L291.825 181.004L292.317 181.281H292.902L293.425 181.62L295.117 185.348L295.825 186.211L297.363 187.197L298.84 188.675L299.179 189.292L298.656 189.538L298.533 190L298.994 190.955L299.794 192.219L300.071 192.865L300.44 194.899L300.287 195.608L300.533 195.792L301.302 196.224L301.64 196.747L301.733 197.579L301.917 198.226L302.379 198.966L304.441 200.907L306.994 202.324L307.394 202.94L307.025 203.772L306.071 203.957L305.056 203.988L304.441 204.265L303.64 203.803L302.779 203.895L302.071 204.45L301.702 205.282L301.763 206.206L302.225 206.822L302.933 207.161L303.794 207.284V207.561L303.394 208.424L303.825 209.164L304.656 209.687L305.487 209.903L305.302 210.981L305.548 212.029L306.317 213.908L305.61 215.141L305.917 217.451L306.256 218.345L305.887 218.899L305.302 219.515L303.333 220.532L303.24 221.118L303.302 222.042L303.24 222.689L303.117 223.213L302.44 224.784L300.81 225.462L295.271 225.523L294.225 225.862L293.671 226.139L293.271 226.54L292.932 227.249L292.532 228.543L289.455 226.725L288.471 225.215L286.532 223.983L284.286 223.736L282.532 223.89L281.732 224.26L279.209 227.125L277.209 228.727L274.901 229.22L268.008 229.005L263.824 227.803L263.516 227.095L264.562 226.848L265.024 226.571L264.224 225.985L259.947 226.848L258.87 226.355L258.07 225.123L257.854 223.921L258.347 222.904L259.116 221.888L260.07 221.58L261.024 221.703L261.885 221.21L261.516 220.039L260.808 218.684L260.716 218.006L260.747 217.359L260.47 216.897L255.639 214.309L248.5 212.491L247.915 211.474L249.331 208.855L249.762 207.623L248.777 206.76L247.7 206.083L246.5 205.621L245.3 205.682L243.269 207.099L240.992 206.976L236.93 204.234L236.777 203.187L236.007 200.198L235.884 199.582L235.577 199.366L235.546 198.781L235.761 198.38L235.977 196.285L235.884 195.33L235.33 194.899V194.56L235.792 194.406L236.161 193.913L236.038 193.235L235.3 191.356L235.053 189.785L234.776 188.922L234.715 188.521L234.746 187.967L235.115 186.827L235.669 183.777L236.069 183.007L236.346 182.76L236.684 182.698L236.623 181.682L236.992 180.172L237.177 178.786L235.946 177.307L236.007 176.105L236.746 175.52L237.484 174.472L237.515 172.47L236.561 172.377V172.038L237.023 171.484L236.93 170.868L236.377 170.005L236.315 169.327L236.346 168.742L236.223 168.311L235.761 168.002L235.453 167.972L234.715 168.311L234.161 168.341L232.592 168.033L231.73 167.633L231.299 167.078L230.899 166.431L230.869 165.907L231.176 164.644L232.284 164.367L233.392 164.798L235.607 165.168L237.792 164.398L238.561 163.658L238.746 162.518L237.207 160.146L238.377 158.482L240.069 157.435L238.992 155.802L238.254 153.953L238.13 152.629L237.515 151.335L237.023 149.948L236.838 148.685L239.023 147.052L241.361 146.374L245.792 146.405L249.977 145.573L251.546 145.851L252.623 145.512L255.546 143.324L256.716 143.17L260.1 143.509L261.793 142.092L261.947 141.352L262.131 140.736L262.654 140.182L263.208 139.812L264.439 140.089L268.039 141.969L269.239 141.507L270.255 140.213L271.116 138.148L274.039 133.835L275.024 131.986L275.424 131.802L276.009 131.925L276.963 132.51H277.516L277.763 132.356V132.356Z" fill="#BFCBD9" stroke="#705454" stroke-width="1.64547" stroke-linecap="round" stroke-linejoin="round"/>
<path d="M292.532 228.543L292.101 229.22L289.671 231.87L288.778 232.579L285.732 234.951L278.716 242.592L277.793 244.009L276.686 244.902L275.455 246.258L272.132 251.157L270.87 252.481L270.685 252.851L270.439 253.837L270.316 254.176L270.039 254.422L269.485 254.638L269.239 254.823L268.931 255.193L267.054 258.612L266.531 259.136L266.193 259.29L265.547 259.413L265.177 259.722L264.962 260.122L264.439 261.632L262.1 264.774L261.362 266.592L261.947 268.286L262.131 268.995L262.347 270.998L262.531 271.799L262.931 272.415L263.608 273.124L263.762 273.493L263.916 274.233L264.316 278.546L264.193 279.255L263.7 280.672L263.239 282.335L262.777 283.352L262.593 283.938L262.931 284.092L263.331 283.568L263.67 283.968L264.654 284.646L265.547 285.848L266.131 286.279L267.485 287.049L267.854 287.511V287.912L267.577 288.836L267.547 289.452L267.67 289.915L268.285 291.024L267.916 291.763L267.301 291.486L266.624 290.87L265.731 290.469L265.177 289.699L264.87 289.391L264.531 289.36L263.824 289.576L262.716 289.483L262.07 289.545L261.423 289.452L260.654 288.959L259.516 287.665L258.9 287.481L258.254 288.097L257.177 287.573L254.777 287.481L253.669 287.111L252.1 285.57L251.454 285.293L249.761 285.355L248.315 284.923L248.1 284.739L248.038 284.43L248.1 283.783L247.761 283.414L247.515 283.383L246.777 283.475L246.131 283.291L245.115 282.644L242.961 282.212L242.1 281.596L241.884 280.086L241.484 278.423L240.623 277.005L239.515 275.958L237.853 275.126L236.746 274.079L236.192 273.77L235.546 273.863L235.022 274.356L234.592 274.88L234.284 275.095L233.792 274.726L232.776 273.124L232.253 272.6L231.945 272.507L231.484 272.6L230.93 272.353L230.376 271.799L230.068 271.583L229.484 271.429L227.299 271.675L226.838 271.86L225.668 268.595L225.114 265.144L225.299 263.48L225.176 261.817L224.13 258.52L222.284 256.517L218.991 255.1L218.068 254.268L218.591 253.067L221.637 250.725L221.237 249.339L220.099 248.723L219.207 248.661L218.56 247.891L218.314 247.213L218.037 246.689L218.068 244.841L218.314 242.715L217.483 235.505L217.699 232.794L218.837 230.822L219.76 228.543L220.099 224.507L220.222 224.445L222.099 222.812L222.684 223.059L223.453 222.905L224.222 222.442L224.807 221.826L224.407 220.84L227.33 219.515L229.299 219.023L229.853 218.53L230.807 217.39L231.176 216.65L231.33 215.695L231.545 214.956L233.022 213.23L233.884 211.752L234.407 211.351L235.207 211.228L235.761 210.951L236.223 210.211L236.592 209.348L236.807 208.578L237.053 206.668L237.023 204.881L236.93 204.234L240.992 206.976L243.269 207.099L245.3 205.682L246.5 205.621L247.7 206.083L248.777 206.76L249.761 207.623L249.331 208.856L247.915 211.474L248.5 212.491L255.639 214.309L260.47 216.897L260.747 217.359L260.716 218.006L260.808 218.684L261.516 220.039L261.885 221.21L261.023 221.703L260.07 221.58L259.116 221.888L258.346 222.905L257.854 223.921L258.069 225.123L258.869 226.355L259.946 226.848L264.224 225.985L265.024 226.571L264.562 226.848L263.516 227.095L263.824 227.803L268.008 229.005L274.901 229.22L277.209 228.727L279.209 227.125L281.732 224.26L282.532 223.89L284.286 223.736L286.532 223.983L288.471 225.215L289.455 226.725L292.532 228.543V228.543Z" fill="#BFCBD9" stroke="#705454" stroke-width="1.64547" stroke-linecap="round" stroke-linejoin="round"/>
<path d="M123.696 189.292L124.404 190.524L125.296 191.263L132.158 193.02L134.312 192.958L134.712 192.619L134.989 192.095L135.358 191.91L136.189 192.896L136.896 194.314L139.204 196.162L138.158 199.921L137.758 200.383L137.543 201.122L137.727 202.232L138.127 203.125L137.912 204.85L135.512 206.422L134.712 208.147L134.158 211.166L133.419 213.169L134.004 214.987L134.835 216.096L135.819 216.866L136.804 217.913L137.143 219.67L132.712 219.639L131.788 219.854L131.388 220.933L131.727 221.765L131.665 222.658L130.988 222.966L130.342 223.089L130.065 224.075L130.588 230.268L130.558 232.702L130.219 234.119L127.265 235.506L125.419 236.892L121.573 237.724L119.727 241.298L119.696 242.099L119.173 241.975L119.326 243.054L119.48 243.115L119.973 243.054L120.188 243.393L120.25 243.855L120.096 244.07L119.111 244.379L117.88 244.409L117.326 244.563L116.403 245.364L115.296 245.703L114.188 245.457L112.188 243.485L111.849 242.992L111.603 242.438L111.234 241.298L110.618 240.62L110.495 240.343L110.895 239.665L110.465 239.572L109.634 239.172L109.234 239.049L108.341 239.326L107.849 239.11L106.372 237.231L106.311 236.861L106.526 236.399L106.865 236.214L108.341 236.153L109.172 235.844L110.465 235.043L111.08 234.52L111.357 233.78L110.895 232.918L110.557 232.579L110.495 232.086L110.557 231.654L110.957 230.607V230.33L110.342 229.467L110.157 229.313L109.634 229.097L109.449 229.22L109.203 229.96L108.28 231.223L107.757 231.654L107.049 231.839L104.311 231.346L102.834 231.47L101.941 232.579L101.634 232.733L101.295 232.579L101.018 231.685L100.341 231.131L99.6643 231.192L99.3258 232.086L98.9258 231.778L98.7104 231.285L98.6488 230.668L98.7104 230.021L98.2488 229.436L98.8027 229.19L98.1565 228.943L96.7411 228.974L96.0026 228.758L94.9256 228.08L94.6179 227.742L94.4333 227.341L94.1564 226.201L93.8487 225.955L92.9256 226.14H92.4948L92.0948 225.924L91.387 225.308L91.0486 225.123L87.91 224.229L87.2023 224.322L86.7407 224.044L86.8638 223.459L89.0793 217.944L90.6793 216.712L92.5563 216.404L93.6333 214.494L94.341 211.782L96.5565 207.562L99.1104 203.772L100.218 201.215L101.664 199.305L102.649 198.658L103.141 197.179L103.326 195.916L103.634 194.714L105.418 190.617L106.218 189.754L107.234 189.415L108.28 189.477L109.357 189.23L110.372 188.583L111.419 188.521L112.434 189.045L112.834 190.124L113.019 191.294L114.619 192.619L116.588 192.712L120.219 191.387L123.696 189.292V189.292Z" fill="#1F6B7B" stroke="#705454" stroke-width="1.64547" stroke-linecap="round" stroke-linejoin="round"/>
<path d="M220.1 224.507L219.762 228.543L218.839 230.823L217.7 232.794L217.485 235.506L218.316 242.715L218.069 244.841L218.039 246.689L218.316 247.213L218.562 247.891L219.208 248.661L220.1 248.723L221.239 249.339L221.639 250.725L218.593 253.067L218.069 254.268L218.993 255.1L222.285 256.517L224.131 258.52L225.177 261.817L225.3 263.48L225.116 265.144L225.67 268.595L226.839 271.86L226.254 272.107L225.824 271.984L224.685 272.23H224.162L221.177 271.367L219.454 270.443L219.054 270.351L218.5 270.751L217.546 272.168L216.992 272.661L216.346 272.754L215.885 272.446L215.454 271.953L214.9 271.583L214.408 271.521L213.177 271.768L212.685 272.014L212.069 272.692L212.438 273.124L213.146 273.555L213.546 274.263L213.269 274.695L212.715 274.818H212.069L211.577 274.941L210.961 275.557L209.946 277.006L209.3 277.591L208.561 277.868L208.008 277.745L207.515 277.375L207.023 276.851L206.438 276.42L205.946 276.359L205.423 276.389L204.746 276.297L204.254 275.927L201.546 272.661L201.053 272.569L199.915 272.754L198.961 272.692L198.653 272.877L198.161 273.462L197.823 273.801L197.084 274.048L196.407 273.894L193.822 272.569L193.33 272.692L193.361 273.493L191.761 273.555L190.499 273.062L190.13 273.093L189.822 273.308L189.73 273.616L189.484 274.726L189.268 275.373L189.115 275.588L186.745 275.804L186.284 276.05L185.637 276.851L185.33 277.129L184.653 277.067L184.407 277.221L183.822 278.546L183.422 279.624L183.053 280.086L182.868 281.719L182.56 282.89L181.945 283.352L180.93 282.859L179.36 281.38L178.499 280.918L177.514 281.042L176.96 281.442L175.945 282.52L175.268 282.767L173.852 282.674L173.083 282.366L172.683 281.843L172.806 281.196L173.976 279.316L174.468 279.039L174.499 278.577L174.191 278.176L173.76 277.868L173.668 277.498L173.945 276.975L173.791 274.695L173.606 273.894L173.329 273L173.052 272.785L172.037 273.216L171.422 273.278L170.745 273.216L168.991 272.6L169.052 272.014L169.022 271.306L169.206 270.751L167.975 270.72L167.36 270.566L166.837 270.135L166.652 269.796L166.16 268.317L165.606 265.914L165.237 264.959L164.529 264.497L164.283 264.251L163.791 263.326L163.514 263.203L163.36 262.679L162.621 262.186L162.252 261.324L162.498 260.338L163.021 259.259L163.144 258.027L161.052 257.657L159.914 257.134L158.929 256.209L158.467 254.73L157.821 253.591L156.283 252.974L155.359 251.341L155.298 249.739L154.621 248.908L153.821 248.815L153.206 248.014L153.544 246.412L154.221 245.026L154.898 244.009L162.16 235.814L160.744 233.842L159.113 232.209L160.067 231.469L162.129 231.747L163.452 229.837L164.314 228.111L165.144 226.879L166.837 227.865H167.606L168.406 227.68L171.114 225.585L172.806 225.308L174.499 225.462L175.483 225.308L179.36 222.843L179.268 221.98L179.083 220.933L181.976 220.964L183.176 221.611L184.191 222.689L186.776 223.49L189.145 225.092L190.53 227.865L191.053 230.083L191.576 231.192L192.961 233.164L193.545 234.396L195.792 235.752L199.823 235.844L200.746 234.889L200.869 234.366L201.238 233.78L202.223 233.287L202.653 232.887L202.777 232.116L203.023 231.778L203.392 231.716L204.038 231.069L204.223 230.237L204.438 229.929L205.607 231.069L206.1 230.823L206.531 230.391L206.931 230.114L207.423 230.422L207.823 230.145L208.654 230.083L208.961 229.898L209.515 229.282L209.823 229.159L212.1 229.097L212.562 228.974L213.485 228.111L214.746 227.495L215.054 227.433L215.485 227.588L216.069 228.235L216.623 228.019L217.146 227.279L217.639 227.002L217.669 226.602L217.854 226.355L218.193 226.17L218.562 225.831L218.716 225.154L219.023 225.4H219.208L219.577 225.154L219.546 224.568L220.1 224.507V224.507Z" fill="#BFCBD9" stroke="#705454" stroke-width="1.64547" stroke-linecap="round" stroke-linejoin="round"/>
</g>
<defs>
<clipPath id="clip0">
<rect width="307.703" height="292.071" fill="white"/>
</clipPath>
</defs>
</svg>
